<?xml version="1.0" encoding="utf-8"?>
<!-- Generator: Adobe Illustrator 22.0.1, SVG Export Plug-In . SVG Version: 6.00 Build 0)  -->
<svg version="1.1" xmlns="http://www.w3.org/2000/svg" xmlns:xlink="http://www.w3.org/1999/xlink" x="0px" y="0px"
	 viewBox="0 0 792 324" style="enable-background:new 0 0 792 324;" xml:space="preserve">
<style type="text/css">
	.st0{fill:#1D4094;}
	.st1{fill:#00AE65;}
	.st2{fill:#FFFFFF;}
</style>
<g id="Layer_1">
	<g>
		<g>
			<path class="st0" d="M43.8,295.7c0,5.5-5.3,7.1-11.4,7.1H16.5v15c5.5,1,8,3.3,8,4.7v0.3H5.8v-48.4c-3.3-1.1-5.8-3.3-5.8-4.9v-0.3
				h49.2v13.5h-0.3c-1.5,0-3.9-2.5-4.9-5.8H16.5v18.1h27.3V295.7z"/>
			<path class="st0" d="M72.4,322.9H53v-0.4c0-1.5,2.1-3.9,4.8-4.7v-34.9c-2.7-0.9-4.8-3.3-4.8-4.7v-0.4h19.4v0.4
				c0,1.5-2.1,3.9-4.8,4.7v34.9c2.8,0.9,4.8,3.3,4.8,4.7V322.9z"/>
			<path class="st0" d="M116.1,299.9c0,4.8-4.6,6.7-10,6.7h-13v11.2c3.9,0.7,7.5,3.3,7.5,4.7v0.4H83.4v-40.1
				c-2.7-0.9-4.8-3.3-4.8-4.7v-0.4h42.1v12.2h-0.4c-1.5,0-3.9-2.1-4.7-4.8H93.2v14.1h22.9V299.9z"/>
			<path class="st0" d="M167.1,277.7v12.2h-0.4c-1.5,0-3.9-2.1-4.7-4.8h-11.1v32.7c3.6,0.9,6.5,3.3,6.5,4.7v0.4h-22.9v-0.4
				c0-1.5,2.9-3.9,6.5-4.7v-32.7h-11.8c-0.9,2.7-3.3,4.8-4.7,4.8h-0.4v-12.2H167.1z"/>
			<path class="st0" d="M185.2,296.3c3.2-0.7,7.1-1.3,13.8-1.3c6.7,0,10.3,0.7,13.9,1.3v-13.4c-2.8-0.9-4.8-3.3-4.8-4.7v-0.4h19.4
				v0.4c0,1.5-2.1,3.9-4.8,4.7v34.9c2.7,0.9,4.8,3.3,4.8,4.7v0.4h-14.6v-18.4c-3.6-0.6-7.2-1.3-13.9-1.3c-6.6,0-10.6,0.6-13.8,1.3
				v13.2c2.7,0.9,4.8,3.3,4.8,4.7v0.4h-14.6v-40.1c-2.8-0.9-4.8-3.3-4.8-4.7v-0.4H190v0.4c0,1.5-2.1,3.9-4.8,4.7V296.3z"/>
			<path class="st0" d="M318.4,269.4v13.5h-0.2c-1.6,0-4-2.5-5.1-5.8h-16.4v40.8c3.2,1,5.8,3.4,5.8,4.9v0.2h-22.3v-0.2
				c0-1.6,2.4-4,5.8-4.9V277h-16.3c-1,3.3-3.3,5.8-4.9,5.8h-0.3v-13.5H318.4z"/>
			<path class="st0" d="M335.6,296.3c3.2-0.7,7.1-1.3,13.7-1.3c6.7,0,10.3,0.7,13.9,1.3v-13.4c-2.7-0.9-4.8-3.3-4.8-4.7v-0.4h19.4
				v0.4c0,1.5-2.1,3.9-4.8,4.7v34.9c2.8,0.9,4.8,3.3,4.8,4.7v0.4h-14.6v-18.4c-3.6-0.6-7.2-1.3-13.9-1.3c-6.6,0-10.6,0.6-13.7,1.3
				v13.2c2.7,0.9,4.8,3.3,4.8,4.7v0.4h-14.6v-40.1c-2.8-0.9-4.8-3.3-4.8-4.7v-0.4h19.4v0.4c0,1.5-2.1,3.9-4.8,4.7V296.3z"/>
			<path class="st0" d="M403.9,322.9h-19.4v-0.4c0-1.5,2.1-3.9,4.8-4.7v-34.9c-2.8-0.9-4.8-3.3-4.8-4.7v-0.4h19.4v0.4
				c0,1.5-2.1,3.9-4.8,4.7v34.9c2.8,0.9,4.8,3.3,4.8,4.7V322.9z"/>
			<path class="st0" d="M440.8,297.8c8.3,0,9.8-2.7,9.8-6.4c0-3.7-1.5-6.4-9.8-6.4h-15.7v12.7H440.8z M429.9,322.9h-14.6v-5.2v-34.9
				c-2.7-0.9-4.8-3.3-4.8-4.7v-0.4h31.7c11,0,18.2,3.6,18.2,13.4c0,7.6-4.8,11.3-12.4,12.7l9.6,13.9c2.4,0.3,5.6,2.8,5.6,4.7v0.4
				h-13.7l-12.2-18.4h-12.3v13.2c2.7,0.9,4.8,3.3,4.8,4.7V322.9z"/>
			<path class="st0" d="M496.3,315.5c10.7,0,16-3.3,16-15.2c0-11.9-5.2-15.2-16-15.2H483v30.4H496.3z M473.2,282.9
				c-2.8-0.9-4.8-3.3-4.8-4.7v-0.4h31.4c12.6,0,22.3,7.2,22.3,22.6c0,15.4-9.7,22.6-22.3,22.6h-26.6V282.9z"/>
			<path class="st0" d="M593.7,314.3c9.1,0,12.5-2.6,12.5-7.4c0-4.8-3.4-7.7-12.5-7.7h-20.9v15H593.7z M593.5,290.8
				c6.5,0,11.3-1.5,11.3-7.1c0-5.2-4.8-5.9-11.3-5.9h-20.5v13H593.5z M594.6,269.4c12.4,0,20.9,3.2,20.9,13.5
				c0,6.4-4.4,10.5-11.9,12c8.4,1.6,13.4,5.9,13.4,13c0,8.4-7.3,15-20.1,15h-34.7v-48.4c-3.3-1.1-5.8-3.3-5.8-4.9v-0.3H594.6z"/>
			<path class="st0" d="M680.2,282.9c-2.8-0.9-4.8-3.3-4.8-4.7v-0.4h13.9l29.8,30.7v-25.5c-2.7-0.9-4.8-3.3-4.8-4.7v-0.4h18.6v0.4
				c0,1.5-2.1,3.9-4.8,4.7v34.9c2.7,0.9,4.8,3.3,4.8,4.7v0.4H720l-30.9-31.7v26.6c2.8,0.9,4.8,3.3,4.8,4.7v0.4h-13.7V282.9z"/>
			<path class="st0" d="M773.4,282.1c-1.3-0.9-2.2-2.8-2.2-4v-0.4h18.7v0.4c0,2.2-2.9,4.3-5.1,4.6l-16.3,13.8l18.1,21.2
				c2.2,0.6,5.5,2.5,5.5,4.7v0.4h-13.7l-17.1-20.6l-7.1,5.5v10c2.7,0.9,4.8,3.3,4.8,4.7v0.4h-14.6v-40.1c-2.8-0.9-4.8-3.3-4.8-4.7
				v-0.4h19.4v0.4c0,1.5-2.1,3.9-4.8,4.7v15.6L773.4,282.1z"/>
			<path class="st0" d="M644.4,288.5l-7,15.8c2.1-0.3,4.6-0.3,7.6-0.3c3.2,0,5.7,0.2,7.7,0.4l-7.5-15.9H644.4z M635.8,322.5v0.4
				h-18.9v-0.4c0-2.2,3.1-4.4,5.3-4.7l16.5-35.4c-1.9-0.9-3.8-2.8-3.8-4.2v-0.4h21.6v0.4c0,1.5-2.1,3.4-3.9,4.2l17.5,35.4
				c2.2,0.3,5.3,2.5,5.3,4.7v0.4h-20.9v-0.4c0-2.3,2.4-4,4.6-4.6l-2.7-5.7c-2.9-0.4-6.3-0.9-11.5-0.9c-5,0-8.4,0.3-11.3,0.8
				l-2.5,5.6C633.7,318.1,635.8,320.2,635.8,322.5"/>
		</g>
		<g>
			<path class="st1" d="M528,71.3c0-38.6-31.6-70.2-70.2-70.2H264V166c0,38.6,31.6,70.2,70.2,70.2H528V71.3z"/>
			<path class="st2" d="M458,13.6H276.5v152.5c0,31.6,25.9,57.5,57.5,57.5h181.4V71.1C515.5,39.5,489.6,13.6,458,13.6"/>
			<path class="st0" d="M457.4,22H284.9v143.6c0,27.3,22.4,49.7,49.7,49.7h172.5V71.7C507.1,44.3,484.7,22,457.4,22"/>
			<path class="st2" d="M382.4,192.4l39.7-150.2l-9.4-0.3L373,192.5L382.4,192.4z M463.1,140.9c10.9-2.1,15.5-7.6,17-9.2
				c3.6-3.8,6-11.8,4.1-18.3c-1.9-6.5-5.1-10.8-10.4-14.9c-7.2-5.5-15-5.3-15-5.3l-42.1-0.1c17.8,6,21.5,21.4,21.5,21.4
				s6.6,20.8-20.8,26.3c0,0-0.4-0.1-0.1,0c2.4,0.8,8.9,4.1,14.3,9.6c4.8,4.9,6.4,12.2,6.4,12.2c4.4,21.5-21.4,26.8-21.4,26.8
				l41.1-0.1c14.3,0,20.7-7.9,21.9-9.2c3.6-3.8,6.7-11.1,5.3-17.5c-1.5-7-5.1-11.2-8.3-14C471.6,144.3,463.1,140.9,463.1,140.9
				C463,140.9,463.1,140.9,463.1,140.9 M375.7,131.9c3.9-4,5.3-12.6,3.2-19.6c-2-7-5.5-11.8-11.2-16.1c-7.7-5.9-15.6-6.4-15.6-6.4
				l-45.2-0.1c19.1,6.4,23.5,22.9,23.5,22.9c4.8,23.1-21.7,27.5-21.7,27.5h49.5C368.1,139.6,374.4,133.3,375.7,131.9 M371.5,46.1
				l-0.6,33.6l-64,0.1V46L371.5,46.1z"/>
		</g>
	</g>
</g>
<g id="_x33_D_x2F_text">
</g>
</svg>
